<svg id="Capa_1" data-name="Capa 1" xmlns="http://www.w3.org/2000/svg" viewBox="0 0 20.51 12.99"><defs><style>.cls-1{fill:#fff;}</style></defs><title>behance-logo</title><path class="cls-1" d="M11.37,12.35a2.21,2.21,0,0,0,1.94-2.42c0-2.28-1.59-3.39-3.6-3.39H3.09V19.26H9.71s4,.13,4-3.75C13.75,15.5,13.92,12.35,11.37,12.35ZM6,8.8h3.7s.9,0,.9,1.32-.53,1.52-1.13,1.52H6ZM9.54,17H6V13.6h3.7s1.34,0,1.34,1.75C11,16.82,10.07,17,9.54,17Z" transform="translate(-3.09 -6.54)"/><rect class="cls-1" x="13.31" y="0.75" width="5.25" height="1.57"/><path class="cls-1" d="M19.14,9.78c-4.89,0-4.89,4.89-4.89,4.89a4.51,4.51,0,0,0,4.89,4.86s4.35.25,4.35-3.38H21.25s.07,1.37-2,1.37A2.07,2.07,0,0,1,17,15.3h6.59S24.29,9.78,19.14,9.78Zm2,3.82H16.95a2.27,2.27,0,0,1,2.24-2A1.89,1.89,0,0,1,21.13,13.6Z" transform="translate(-3.09 -6.54)"/></svg>