<?xml version="1.0" encoding="utf-8"?>
<!-- Generator: Adobe Illustrator 21.0.0, SVG Export Plug-In . SVG Version: 6.00 Build 0)  -->
<svg version="1.1" id="Capa_1" xmlns="http://www.w3.org/2000/svg" xmlns:xlink="http://www.w3.org/1999/xlink" x="0px" y="0px"
	 viewBox="0 0 25 25" style="enable-background:new 0 0 25 25;" xml:space="preserve">
<style type="text/css">
	.st0{fill:#FFFFFF;}
</style>
<g>
	<path class="st0" d="M22.3,6.8c-1-1.7-2.4-3.1-4.1-4.1c-1.7-1-3.6-1.5-5.7-1.5c-2.1,0-3.9,0.5-5.7,1.5c-1.7,1-3.1,2.4-4.1,4.1
		c-1,1.7-1.5,3.6-1.5,5.7c0,2.1,0.5,3.9,1.5,5.7c1,1.7,2.4,3.1,4.1,4.1c1.7,1,3.6,1.5,5.7,1.5s3.9-0.5,5.7-1.5
		c1.7-1,3.1-2.4,4.1-4.1c1-1.7,1.5-3.6,1.5-5.7C23.8,10.4,23.3,8.6,22.3,6.8z M12.5,2.8c2.4,0,4.6,0.8,6.4,2.4l-0.2,0.3
		c-0.1,0.1-0.3,0.3-0.6,0.6c-0.3,0.3-0.6,0.6-1,0.8c-0.3,0.3-0.8,0.6-1.4,0.9c-0.6,0.3-1.2,0.6-1.9,0.9c-1.1-2.1-2.3-4-3.6-5.6
		C11,2.9,11.8,2.8,12.5,2.8z M4.9,6.5C5.9,5.3,7,4.4,8.4,3.8c1.2,1.6,2.4,3.5,3.6,5.6c-3,0.8-6,1.2-8.9,1.2C3.4,9,4,7.7,4.9,6.5z
		 M3.5,16c-0.4-1.1-0.6-2.3-0.6-3.5c0-0.1,0-0.2,0-0.3c3.6,0,6.9-0.5,9.9-1.4c0.3,0.6,0.6,1.2,0.8,1.6c0,0-0.1,0-0.2,0.1
		c-0.1,0-0.2,0-0.2,0.1l-0.5,0.2c-0.4,0.1-0.9,0.4-1.5,0.7c-0.6,0.3-1.2,0.7-1.9,1.2c-0.7,0.5-1.4,1.1-2.1,1.8
		c-0.7,0.8-1.3,1.6-1.8,2.5C4.5,18.1,3.9,17.1,3.5,16z M12.5,22.2c-2.3,0-4.3-0.7-6.2-2.2l0.2,0.2c0.3-0.8,0.8-1.5,1.5-2.2
		c0.7-0.7,1.3-1.3,1.9-1.7c0.6-0.4,1.3-0.8,2-1.2c0.7-0.4,1.2-0.6,1.5-0.7c0.3-0.1,0.5-0.2,0.6-0.2l0,0h0c1,2.5,1.6,5,2.1,7.3
		C15.1,21.9,13.8,22.2,12.5,22.2z M20.6,17.7c-0.7,1.1-1.6,2.1-2.7,2.8c-0.4-2.3-1-4.6-1.9-6.9c2-0.3,4-0.2,6,0.4
		C21.8,15.4,21.4,16.6,20.6,17.7z M22,12.4c-0.1,0-0.2,0-0.4-0.1c-0.1,0-0.3-0.1-0.5-0.1c-0.2,0-0.4-0.1-0.7-0.1
		c-0.3,0-0.5-0.1-0.8-0.1c-0.3,0-0.6,0-0.9-0.1c-0.3,0-0.7,0-1,0c-0.3,0-0.7,0-1.1,0c-0.4,0-0.7,0.1-1.1,0.1c0,0-0.1-0.1-0.1-0.2
		c0-0.1-0.1-0.2-0.1-0.3c-0.2-0.4-0.4-0.9-0.6-1.4c0.7-0.3,1.3-0.6,1.9-0.9c0.6-0.4,1.1-0.7,1.5-1c0.4-0.3,0.7-0.6,1-0.9
		c0.3-0.3,0.5-0.5,0.6-0.7c0.1-0.1,0.2-0.2,0.3-0.4l0,0c1.4,1.7,2.2,3.8,2.2,6L22,12.4z"/>
</g>
</svg>
