<?xml version="1.0" encoding="utf-8"?>
<!-- Generator: Adobe Illustrator 21.0.0, SVG Export Plug-In . SVG Version: 6.00 Build 0)  -->
<svg version="1.1" id="Capa_1" xmlns="http://www.w3.org/2000/svg" xmlns:xlink="http://www.w3.org/1999/xlink" x="0px" y="0px"
	 viewBox="0 0 25 25" style="enable-background:new 0 0 25 25;" xml:space="preserve">
<style type="text/css">
	.st0{fill:#FFFFFF;}
</style>
<g>
	<path id="Google" class="st0" d="M20.1,1.3h-6.2c-1.6,0-3.7,0.2-5.4,1.7C7.3,4,6.6,5.6,6.6,6.9c0,2.3,1.8,4.7,5,4.7
		c0.3,0,0.6,0,1-0.1c-0.2,0.4-0.3,0.7-0.3,1.2c0,0.9,0.5,1.5,0.9,2c-1.4,0.1-3.9,0.2-5.7,1.4c-1.8,1.1-2.3,2.6-2.3,3.7
		c0,2.2,2.1,4.3,6.5,4.3c5.2,0,7.9-2.9,7.9-5.7c0-2.1-1.2-3.1-2.5-4.2l-1.1-0.8c-0.3-0.3-0.8-0.6-0.8-1.3c0-0.7,0.5-1.1,0.8-1.5
		c1.3-1,2.5-2,2.5-4.3c0-2.3-1.4-3.5-2.1-4.1h1.9L20.1,1.3z M17.5,19.7c0,1.9-1.5,3.2-4.4,3.2c-3.2,0-5.3-1.5-5.3-3.7
		c0-2.1,1.9-2.9,2.6-3.1c1.3-0.4,2.9-0.5,3.2-0.5c0.3,0,0.5,0,0.7,0C16.5,17.3,17.5,18.1,17.5,19.7z M15.1,10
		c-0.5,0.5-1.3,0.8-2,0.8c-2.6,0-3.8-3.3-3.8-5.4c0-0.8,0.2-1.6,0.7-2.2c0.5-0.6,1.3-1,2.1-1c2.5,0,3.8,3.4,3.8,5.5
		C15.8,8.3,15.8,9.3,15.1,10z"/>
</g>
</svg>
