<svg id="Capa_1" data-name="Capa 1" xmlns="http://www.w3.org/2000/svg" viewBox="0 0 22.76 18.54"><defs><style>.cls-1{fill:#fff;}</style></defs><title>twitter-logo</title><path class="cls-1" d="M23.85,6.39a.11.11,0,0,0-.13,0A9.1,9.1,0,0,1,21.59,7a4.73,4.73,0,0,0,1.67-2.34.11.11,0,0,0-.17-.13,9.13,9.13,0,0,1-2.84,1.1,4.74,4.74,0,0,0-8.06,4.22,13.06,13.06,0,0,1-9.3-4.78.11.11,0,0,0-.1,0,.11.11,0,0,0-.09.06,4.74,4.74,0,0,0,1.14,6.09,4.53,4.53,0,0,1-1.65-.53.11.11,0,0,0-.17.1v.06a4.75,4.75,0,0,0,3.33,4.52,4.55,4.55,0,0,1-1.57,0,.11.11,0,0,0-.13.15,4.74,4.74,0,0,0,4.11,3.27,9.1,9.1,0,0,1-5.43,1.77,9.37,9.37,0,0,1-1.09-.06.11.11,0,0,0-.12.07.11.11,0,0,0,0,.13,13.22,13.22,0,0,0,7.15,2.1A13.14,13.14,0,0,0,21.59,9.45q0-.27,0-.54a9.44,9.44,0,0,0,2.28-2.39A.11.11,0,0,0,23.85,6.39Z" transform="translate(-1.12 -4.18)"/></svg>